<svg width="1392" height="520" viewBox="0 0 1392 520" fill="none" xmlns="http://www.w3.org/2000/svg">
<g clip-path="url(#clip0_418_100)">
<rect width="1392" height="520" fill="#011627"/>
<path d="M65.3331 -969.111L154.819 -202.092C178.403 0.0596983 20.4117 177.555 -183.111 177.555" stroke="url(#paint0_linear_418_100)" stroke-width="2"/>
<path d="M390.222 -969.111V-237.754C390.222 14.0598 239.752 241.505 7.99976 340" stroke="url(#paint1_linear_418_100)" stroke-width="2"/>
<path d="M581.333 -969.111V-209.177C581.333 40.4641 492.482 281.956 330.684 472.068L199.111 626.667" stroke="url(#paint2_linear_418_100)" stroke-width="2"/>
<path d="M810.666 -969.111V-209.177C810.666 40.4641 899.517 281.956 1061.31 472.068L1192.89 626.667" stroke="url(#paint3_linear_418_100)" stroke-width="2"/>
<path d="M1001.78 -969.111V-237.754C1001.78 14.0598 1152.25 241.505 1384 340" stroke="url(#paint4_linear_418_100)" stroke-width="2"/>
<path d="M1326.67 -969.111L1237.18 -202.092C1213.6 0.0596983 1371.59 177.555 1575.11 177.555" stroke="url(#paint5_linear_418_100)" stroke-width="2"/>
<rect width="1392" height="520" fill="url(#paint6_radial_418_100)"/>
<g opacity="0.08" filter="url(#filter0_f_418_100)">
<circle cx="695.523" cy="223.122" r="442.9" fill="#79ECDD"/>
</g>
</g>
<defs>
<filter id="filter0_f_418_100" x="61.5119" y="-410.889" width="1268.02" height="1268.02" filterUnits="userSpaceOnUse" color-interpolation-filters="sRGB">
<feFlood flood-opacity="0" result="BackgroundImageFix"/>
<feBlend mode="normal" in="SourceGraphic" in2="BackgroundImageFix" result="shape"/>
<feGaussianBlur stdDeviation="95.5556" result="effect1_foregroundBlur_418_100"/>
</filter>
<linearGradient id="paint0_linear_418_100" x1="7.99977" y1="-969.111" x2="7.99977" y2="177.555" gradientUnits="userSpaceOnUse">
<stop offset="0.00520833" stop-color="#79ECDD" stop-opacity="0.24"/>
<stop offset="0.666667" stop-color="#79ECDD" stop-opacity="0.08"/>
<stop offset="1" stop-color="#79ECDD"/>
</linearGradient>
<linearGradient id="paint1_linear_418_100" x1="199.111" y1="-969.111" x2="199.111" y2="340" gradientUnits="userSpaceOnUse">
<stop offset="0.00520833" stop-color="#79ECDD" stop-opacity="0.24"/>
<stop offset="0.666667" stop-color="#79ECDD" stop-opacity="0.08"/>
<stop offset="1" stop-color="#79ECDD"/>
</linearGradient>
<linearGradient id="paint2_linear_418_100" x1="390.222" y1="-969.111" x2="390.222" y2="626.667" gradientUnits="userSpaceOnUse">
<stop offset="0.00520833" stop-color="#79ECDD" stop-opacity="0.24"/>
<stop offset="0.666667" stop-color="#79ECDD" stop-opacity="0.08"/>
<stop offset="1" stop-color="#79ECDD"/>
</linearGradient>
<linearGradient id="paint3_linear_418_100" x1="1001.78" y1="-969.111" x2="1001.78" y2="626.667" gradientUnits="userSpaceOnUse">
<stop offset="0.00520833" stop-color="#79ECDD" stop-opacity="0.24"/>
<stop offset="0.666667" stop-color="#79ECDD" stop-opacity="0.08"/>
<stop offset="1" stop-color="#79ECDD"/>
</linearGradient>
<linearGradient id="paint4_linear_418_100" x1="1192.89" y1="-969.111" x2="1192.89" y2="340" gradientUnits="userSpaceOnUse">
<stop offset="0.00520833" stop-color="#79ECDD" stop-opacity="0.24"/>
<stop offset="0.666667" stop-color="#79ECDD" stop-opacity="0.08"/>
<stop offset="1" stop-color="#79ECDD"/>
</linearGradient>
<linearGradient id="paint5_linear_418_100" x1="1384" y1="-969.111" x2="1384" y2="177.555" gradientUnits="userSpaceOnUse">
<stop offset="0.00520833" stop-color="#79ECDD" stop-opacity="0.24"/>
<stop offset="0.666667" stop-color="#79ECDD" stop-opacity="0.08"/>
<stop offset="1" stop-color="#79ECDD"/>
</linearGradient>
<radialGradient id="paint6_radial_418_100" cx="0" cy="0" r="1" gradientUnits="userSpaceOnUse" gradientTransform="translate(696 260) rotate(90) scale(282.1 999.372)">
<stop offset="0.543094" stop-color="#011627" stop-opacity="0"/>
<stop offset="1" stop-color="#001221"/>
</radialGradient>
<clipPath id="clip0_418_100">
<rect width="1392" height="520" fill="white"/>
</clipPath>
</defs>
</svg>
